<svg width="24" height="24" viewBox="0 0 24 24" fill="none" xmlns="http://www.w3.org/2000/svg">
<path d="M22 12C22.0017 13.3172 21.7424 14.6216 21.237 15.8379C20.7316 17.0543 19.9901 18.1584 19.0555 19.0865C18.1285 20.0118 17.0283 20.7454 15.8177 21.2454C14.6071 21.7453 13.3098 22.0017 12 22C6.47701 22 2.00001 17.523 2.00001 12C1.99651 9.43589 2.98144 6.96909 4.75001 5.11251C5.68318 4.12781 6.80747 3.34388 8.05407 2.8087C9.30068 2.27352 10.6434 1.99834 12 2.00001C13.3098 1.99831 14.6071 2.25475 15.8177 2.75466C17.0283 3.25458 18.1285 3.98817 19.0555 4.91351M22 12C22.0017 10.6829 21.7424 9.37842 21.237 8.16208C20.7316 6.94575 19.9901 5.84162 19.0555 4.91351M22 12C20.541 12 16.516 11.45 12.9135 13.0315C9.00001 14.75 6.16651 17.4155 4.93151 19.0735M22 12C22 13.231 21.7775 14.4105 21.37 15.5M19.0555 4.91351C18.175 4.03613 17.1388 3.33028 16 2.83201M8.25001 2.72701C9.81501 4.17151 13.23 7.84901 14.5 11.5C15.77 15.151 16.24 19.64 16.53 20.9175M2.07701 10.75C3.96601 10.864 8.96651 10.9665 12.1665 9.60001C15.3665 8.23351 18.12 5.72001 19.0645 4.92251M2.75001 15.8065C3.63117 17.9395 5.22036 19.7036 7.25001 20.802" stroke="#7E7E7E" stroke-width="2" stroke-linecap="round" stroke-linejoin="round"/>
</svg>
