<svg width="24" height="24" viewBox="0 0 24 24" fill="none" xmlns="http://www.w3.org/2000/svg">
<path d="M17.4938 8.8125C18.1668 8.32443 18.668 7.63587 18.9257 6.84546C19.1834 6.05506 19.1843 5.20337 18.9282 4.41243C18.6722 3.62148 18.1724 2.93187 17.5005 2.44238C16.8285 1.95288 16.0189 1.68864 15.1875 1.6875H8.8125C7.98116 1.68864 7.1715 1.95288 6.49954 2.44238C5.82757 2.93187 5.32778 3.62148 5.07176 4.41243C4.81574 5.20337 4.81664 6.05506 5.07433 6.84546C5.33201 7.63587 5.83326 8.32443 6.50625 8.8125C6.00099 9.17639 5.58947 9.65518 5.30564 10.2094C5.0218 10.7636 4.87378 11.3773 4.87378 12C4.87378 12.6227 5.0218 13.2364 5.30564 13.7906C5.58947 14.3448 6.00099 14.8236 6.50625 15.1875C5.95973 15.5824 5.52378 16.1111 5.24018 16.7229C4.95659 17.3346 4.83485 18.009 4.88663 18.6813C4.93842 19.3536 5.16198 20.0013 5.53592 20.5625C5.90985 21.1236 6.42161 21.5793 7.02218 21.8859C7.62274 22.1924 8.29198 22.3397 8.96576 22.3134C9.63955 22.2872 10.2953 22.0883 10.8702 21.736C11.4451 21.3836 11.9199 20.8895 12.249 20.301C12.5782 19.7125 12.7507 19.0493 12.75 18.375V15.0844C13.1587 15.4292 13.6334 15.6872 14.145 15.8426C14.6567 15.998 15.1947 16.0475 15.7261 15.9882C16.2576 15.9288 16.7713 15.7619 17.2361 15.4975C17.7009 15.233 18.107 14.8767 18.4296 14.4502C18.7522 14.0237 18.9845 13.536 19.1124 13.0168C19.2403 12.4976 19.2611 11.9577 19.1735 11.4302C19.086 10.9027 18.8919 10.3985 18.6031 9.94846C18.3143 9.49841 17.9368 9.1119 17.4938 8.8125ZM17.625 5.625C17.6225 6.27071 17.3649 6.88926 16.9083 7.34584C16.4518 7.80243 15.8332 8.06003 15.1875 8.0625H12.75V3.1875H15.1875C15.8332 3.18997 16.4518 3.44757 16.9083 3.90416C17.3649 4.36074 17.6225 4.97929 17.625 5.625ZM6.375 5.625C6.37747 4.97929 6.63507 4.36074 7.09166 3.90416C7.54825 3.44757 8.1668 3.18997 8.8125 3.1875H11.25V8.0625H8.8125C8.1668 8.06003 7.54825 7.80243 7.09166 7.34584C6.63507 6.88926 6.37747 6.27071 6.375 5.625V5.625ZM6.375 12C6.37747 11.3543 6.63507 10.7357 7.09166 10.2792C7.54825 9.82257 8.1668 9.56497 8.8125 9.5625H11.25V14.4375H8.8125C8.1668 14.435 7.54825 14.1774 7.09166 13.7208C6.63507 13.2643 6.37747 12.6457 6.375 12ZM8.8125 20.8125C8.16604 20.8125 7.54605 20.5557 7.08893 20.0986C6.63181 19.6415 6.375 19.0215 6.375 18.375C6.375 17.7285 6.63181 17.1085 7.08893 16.6514C7.54605 16.1943 8.16604 15.9375 8.8125 15.9375H11.25V18.375C11.2475 19.0207 10.9899 19.6393 10.5333 20.0958C10.0768 20.5524 9.45821 20.81 8.8125 20.8125V20.8125ZM15.1875 14.4375C14.541 14.4375 13.9211 14.1807 13.4639 13.7236C13.0068 13.2665 12.75 12.6465 12.75 12C12.75 11.3535 13.0068 10.7335 13.4639 10.2764C13.9211 9.81931 14.541 9.5625 15.1875 9.5625C15.834 9.5625 16.454 9.81931 16.9111 10.2764C17.3682 10.7335 17.625 11.3535 17.625 12C17.625 12.6465 17.3682 13.2665 16.9111 13.7236C16.454 14.1807 15.834 14.4375 15.1875 14.4375V14.4375Z" fill="#7E7E7E"/>
</svg>
