<svg width="36" height="36" viewBox="0 0 36 36" fill="none" xmlns="http://www.w3.org/2000/svg">
<circle cx="18" cy="18" r="18" fill="#01A4FF" fill-opacity="0.1"/>
<path d="M25.5 15.5L25.5 10.5M25.5 10.5H20.5M25.5 10.5L18.8333 17.1667M16.3333 12.1667H14.5C13.0999 12.1667 12.3998 12.1667 11.865 12.4392C11.3946 12.6788 11.0122 13.0613 10.7725 13.5317C10.5 14.0665 10.5 14.7665 10.5 16.1667V21.5C10.5 22.9001 10.5 23.6002 10.7725 24.135C11.0122 24.6054 11.3946 24.9878 11.865 25.2275C12.3998 25.5 13.0999 25.5 14.5 25.5H19.8333C21.2335 25.5 21.9335 25.5 22.4683 25.2275C22.9387 24.9878 23.3212 24.6054 23.5608 24.135C23.8333 23.6002 23.8333 22.9001 23.8333 21.5V19.6667" stroke="#01A4FF" stroke-width="2" stroke-linecap="round" stroke-linejoin="round"/>
</svg>
